{"export_path": "", "height": 720, "effects": [{"start": 0, "end": 4.060000000000001, "reader": {"has_audio": false, "top_field_first": true, "video_stream_index": -1, "video_bit_rate": 0, "audio_bit_rate": 0, "audio_stream_index": -1, "pixel_format": -1, "fps": {"den": 1, "num": 30}, "video_timebase": {"den": 30, "num": 1}, "video_length": "2592000", "channel_layout": 4, "interlaced_frame": false, "vcodec": "", "path": "@transitions/extra/fogg_3.jpg", "display_ratio": {"den": 9, "num": 16}, "duration": 86400.0, "acodec": "", "audio_timebase": {"den": 1, "num": 1}, "width": 1920, "sample_rate": 0, "pixel_ratio": {"den": 1, "num": 1}, "channels": 0, "has_single_image": true, "has_video": true, "file_size": "8294400", "type": "QtImageReader", "height": 1080}, "title": "Transition", "contrast": {"Points": [{"co": {"Y": 3, "X": 1}, "interpolation": 2}]}, "position": 6.02, "brightness": {"Points": [{"co": {"Y": -1, "X": 1}, "handle_left": {"Y": 1, "X": 0.5}, "handle_right": {"Y": 0, "X": 0.5}, "handle_type": 0, "interpolation": 0}, {"co": {"Y": 1, "X": 98}, "handle_left": {"Y": 1, "X": 0.5}, "handle_right": {"Y": 0, "X": 0.5}, "handle_type": 0, "interpolation": 0}]}, "replace_image": false, "id": "VOVI79UMVS", "type": "Mask", "layer": 0}, {"start": 0, "end": 3.94, "reader": {"has_audio": false, "top_field_first": true, "video_stream_index": -1, "video_bit_rate": 0, "audio_bit_rate": 0, "audio_stream_index": -1, "pixel_format": -1, "fps": {"den": 1, "num": 30}, "video_timebase": {"den": 30, "num": 1}, "video_length": "2592000", "channel_layout": 4, "interlaced_frame": false, "vcodec": "", "path": "@transitions/extra/fogg_6.jpg", "display_ratio": {"den": 9, "num": 16}, "duration": 86400.0, "acodec": "", "audio_timebase": {"den": 1, "num": 1}, "width": 1920, "sample_rate": 0, "pixel_ratio": {"den": 1, "num": 1}, "channels": 0, "has_single_image": true, "has_video": true, "file_size": "8294400", "type": "QtImageReader", "height": 1080}, "title": "Transition", "contrast": {"Points": [{"co": {"Y": 3, "X": 1}, "interpolation": 2}]}, "position": 10.139999999999999, "brightness": {"Points": [{"co": {"Y": 1, "X": 1}, "handle_left": {"Y": 1, "X": 0.5}, "handle_right": {"Y": 0, "X": 0.5}, "handle_type": 0, "interpolation": 0}, {"co": {"Y": -1, "X": 96}, "handle_left": {"Y": 1, "X": 0.5}, "handle_right": {"Y": 0, "X": 0.5}, "handle_type": 0, "interpolation": 0}]}, "replace_image": false, "id": "BL068L8QLR", "type": "Mask", "layer": 0}, {"start": 0, "end": 4.280000000000001, "reader": {"has_audio": false, "top_field_first": true, "video_stream_index": -1, "video_bit_rate": 0, "audio_bit_rate": 0, "audio_stream_index": -1, "pixel_format": -1, "fps": {"den": 1, "num": 30}, "video_timebase": {"den": 30, "num": 1}, "video_length": "2592000", "channel_layout": 4, "interlaced_frame": false, "vcodec": "", "path": "@transitions/extra/fogg_4.jpg", "display_ratio": {"den": 9, "num": 16}, "duration": 86400.0, "acodec": "", "audio_timebase": {"den": 1, "num": 1}, "width": 1920, "sample_rate": 0, "pixel_ratio": {"den": 1, "num": 1}, "channels": 0, "has_single_image": true, "has_video": true, "file_size": "8294400", "type": "QtImageReader", "height": 1080}, "title": "Transition", "contrast": {"Points": [{"interpolation": 2, "co": {"Y": 3, "X": 1}}]}, "position": 15.62, "brightness": {"Points": [{"interpolation": 0, "handle_left": {"Y": 1, "X": 0.5}, "handle_right": {"Y": 0, "X": 0.5}, "handle_type": 0, "co": {"Y": -1, "X": 1}}, {"interpolation": 0, "handle_left": {"Y": 1, "X": 0.5}, "handle_right": {"Y": 0, "X": 0.5}, "handle_type": 0, "co": {"Y": 1, "X": 104}}]}, "replace_image": false, "id": "KPZAHNNJXZ", "type": "Mask", "layer": 0}, {"position": 932.48, "start": 0, "end": 3.777972717285138, "reader": {"has_audio": false, "top_field_first": true, "video_stream_index": -1, "video_bit_rate": 0, "audio_bit_rate": 0, "audio_stream_index": -1, "pixel_format": -1, "fps": {"den": 1, "num": 30}, "video_timebase": {"den": 30, "num": 1}, "video_length": "2592000", "channel_layout": 4, "interlaced_frame": false, "vcodec": "", "path": "@transitions/common/fade.svg", "display_ratio": {"den": 4, "num": 5}, "duration": 86400.0, "acodec": "", "audio_timebase": {"den": 1, "num": 1}, "width": 720, "sample_rate": 0, "pixel_ratio": {"den": 1, "num": 1}, "channels": 0, "has_single_image": true, "has_video": true, "file_size": "1658880", "type": "QtImageReader", "height": 576}, "title": "Transition", "brightness": {"Points": [{"interpolation": 0, "handle_left": {"Y": 1.0, "X": 0.5}, "handle_right": {"Y": 0.0, "X": 0.5}, "handle_type": 0, "co": {"Y": 1.0, "X": 1.0}}, {"interpolation": 0, "handle_left": {"Y": 1.0, "X": 0.5}, "handle_right": {"Y": 0.0, "X": 0.5}, "handle_type": 0, "co": {"Y": -1.0, "X": 92.0}}]}, "layer": 0, "contrast": {"Points": [{"interpolation": 2, "co": {"Y": 3.0, "X": 1.0}}]}, "replace_image": false, "id": "GDYSH3UZ1T", "type": "Mask"}], "fps": {"den": 1, "num": 24}, "markers": [{"position": 932.7916666666666, "icon": "blue.png", "id": "10QPP5QW48"}], "playhead_position": 0, "channel_layout": 3, "clips": [{"crop_x": {"Points": [{"co": {"Y": 0.0, "X": 1.0}, "interpolation": 2}]}, "alpha": {"Points": [{"interpolation": 0, "handle_left": {"Y": 1.0, "X": 0.5}, "handle_right": {"Y": 0.0, "X": 0.5}, "handle_type": 0, "co": {"Y": 1.0, "X": 1.0}}, {"interpolation": 0, "handle_left": {"X": 0.5, "Y": 1.0}, "handle_right": {"X": 0.5, "Y": 0.0}, "handle_type": 0, "co": {"X": 21674.0, "Y": 1.0}}, {"interpolation": 0, "handle_left": {"X": 0.5, "Y": 1.0}, "handle_right": {"X": 0.5, "Y": 0.0}, "handle_type": 0, "co": {"X": 21746.0, "Y": 0.0}}, {"interpolation": 0, "handle_left": {"X": 0.5, "Y": 1.0}, "handle_right": {"X": 0.5, "Y": 0.0}, "handle_type": 0, "co": {"X": 1.0, "Y": 0.0}}, {"interpolation": 0, "handle_left": {"X": 0.5, "Y": 1.0}, "handle_right": {"X": 0.5, "Y": 0.0}, "handle_type": 0, "co": {"X": 25.0, "Y": 1.0}}]}, "shear_x": {"Points": [{"co": {"Y": 0.0, "X": 1.0}, "interpolation": 2}]}, "scale_x": {"Points": [{"co": {"Y": 1.0, "X": 1.0}, "interpolation": 2}]}, "perspective_c4_x": {"Points": [{"co": {"Y": -1.0, "X": 1.0}, "interpolation": 2}]}, "channel_filter": {"Points": [{"co": {"Y": -1.0, "X": 1.0}, "interpolation": 2}]}, "end": 906.0479736328125, "gravity": 4, "perspective_c2_y": {"Points": [{"co": {"Y": -1.0, "X": 1.0}, "interpolation": 2}]}, "location_x": {"Points": [{"co": {"Y": 0.0, "X": 1.0}, "interpolation": 2}]}, "start": 0, "rotation": {"Points": [{"co": {"Y": 0.0, "X": 1.0}, "interpolation": 2}]}, "position": 20.209999084472656, "waveform": false, "display": 0, "wave_color": {"red": {"Points": [{"co": {"Y": 0.0, "X": 1.0}, "handle_left": {"Y": 1.0, "X": 0.5}, "handle_right": {"Y": 0.0, "X": 0.5}, "handle_type": 0, "interpolation": 0}]}, "alpha": {"Points": [{"co": {"Y": 255.0, "X": 1.0}, "handle_left": {"Y": 1.0, "X": 0.5}, "handle_right": {"Y": 0.0, "X": 0.5}, "handle_type": 0, "interpolation": 0}]}, "blue": {"Points": [{"co": {"Y": 255.0, "X": 1.0}, "handle_left": {"Y": 1.0, "X": 0.5}, "handle_right": {"Y": 0.0, "X": 0.5}, "handle_type": 0, "interpolation": 0}]}, "green": {"Points": [{"co": {"Y": 123.0, "X": 1.0}, "handle_left": {"Y": 1.0, "X": 0.5}, "handle_right": {"Y": 0.0, "X": 0.5}, "handle_type": 0, "interpolation": 0}]}}, "anchor": 0, "file_id": "9D4U86RADQ", "has_video": {"Points": [{"co": {"Y": -1.0, "X": 1.0}, "interpolation": 2}]}, "id": "RJ6XKRUDAB", "perspective_c2_x": {"Points": [{"co": {"Y": -1.0, "X": 1.0}, "interpolation": 2}]}, "layer": 0, "effects": [], "reader": {"has_audio": true, "top_field_first": true, "video_stream_index": 0, "video_bit_rate": 17142036, "audio_bit_rate": 128002, "audio_stream_index": 1, "pixel_format": 0, "fps": {"den": 1, "num": 50}, "video_timebase": {"den": 90000, "num": 1}, "video_length": "45302", "channel_layout": 3, "interlaced_frame": false, "vcodec": "h264", "path": "HDV_0263.MP4", "display_ratio": {"den": 9, "num": 16}, "duration": 906.0479736328125, "acodec": "aac", "audio_timebase": {"den": 90000, "num": 1}, "width": 1920, "sample_rate": 48000, "pixel_ratio": {"den": 1, "num": 1}, "channels": 2, "has_single_image": false, "has_video": true, "file_size": "1941438464", "type": "FFmpegReader", "height": 1080}, "crop_height": {"Points": [{"co": {"Y": -1.0, "X": 1.0}, "interpolation": 2}]}, "perspective_c4_y": {"Points": [{"co": {"Y": -1.0, "X": 1.0}, "interpolation": 2}]}, "image": "../../../../../.openshot_qt/thumbnail/9D4U86RADQ.png", "crop_y": {"Points": [{"co": {"Y": 0.0, "X": 1.0}, "interpolation": 2}]}, "title": "HDV_0263.MP4", "perspective_c1_x": {"Points": [{"co": {"Y": -1.0, "X": 1.0}, "interpolation": 2}]}, "volume": {"Points": [{"interpolation": 0, "handle_left": {"X": 0.5, "Y": 1.0}, "handle_right": {"X": 0.5, "Y": 0.0}, "handle_type": 0, "co": {"X": 1.0, "Y": 1.0}}, {"co": {"X": 1.0, "Y": 0.0}, "handle_left": {"X": 0.5, "Y": 1.0}, "handle_right": {"X": 0.5, "Y": 0.0}, "handle_type": 0, "interpolation": 0}, {"co": {"X": 1.0, "Y": 0.0}, "handle_left": {"X": 0.5, "Y": 1.0}, "handle_right": {"X": 0.5, "Y": 0.0}, "handle_type": 0, "interpolation": 0}]}, "perspective_c1_y": {"Points": [{"co": {"Y": -1.0, "X": 1.0}, "interpolation": 2}]}, "time": {"Points": [{"co": {"Y": 1.0, "X": 1.0}, "interpolation": 2}]}, "has_audio": {"Points": [{"co": {"Y": -1.0, "X": 1.0}, "interpolation": 2}]}, "shear_y": {"Points": [{"co": {"Y": 0.0, "X": 1.0}, "interpolation": 2}]}, "location_y": {"Points": [{"co": {"Y": 0.0, "X": 1.0}, "interpolation": 2}]}, "crop_width": {"Points": [{"co": {"Y": -1.0, "X": 1.0}, "interpolation": 2}]}, "perspective_c3_x": {"Points": [{"co": {"Y": -1.0, "X": 1.0}, "interpolation": 2}]}, "channel_mapping": {"Points": [{"co": {"Y": -1.0, "X": 1.0}, "interpolation": 2}]}, "scale": 1, "duration": 906.0479736328125, "perspective_c3_y": {"Points": [{"co": {"Y": -1.0, "X": 1.0}, "interpolation": 2}]}, "scale_y": {"Points": [{"co": {"Y": 1.0, "X": 1.0}, "interpolation": 2}]}}, {"crop_x": {"Points": [{"co": {"Y": 0.0, "X": 1.0}, "interpolation": 2}]}, "alpha": {"Points": [{"co": {"Y": 1.0, "X": 1.0}, "interpolation": 2}, {"interpolation": 0, "handle_left": {"Y": 1.0, "X": 0.5}, "handle_right": {"Y": 0.0, "X": 0.5}, "handle_type": 0, "co": {"Y": 1.0, "X": 21245.0}}, {"interpolation": 0, "handle_left": {"Y": 1.0, "X": 0.5}, "handle_right": {"Y": 0.0, "X": 0.5}, "handle_type": 0, "co": {"Y": 0.0, "X": 21317.0}}]}, "shear_x": {"Points": [{"co": {"Y": 0.0, "X": 1.0}, "interpolation": 2}]}, "scale_x": {"Points": [{"co": {"Y": 1.0, "X": 1.0}, "interpolation": 2}]}, "perspective_c4_x": {"Points": [{"co": {"Y": -1.0, "X": 1.0}, "interpolation": 2}]}, "channel_filter": {"Points": [{"co": {"Y": -1.0, "X": 1.0}, "interpolation": 2}]}, "end": 888.170654296875, "gravity": 4, "perspective_c2_y": {"Points": [{"co": {"Y": -1.0, "X": 1.0}, "interpolation": 2}]}, "location_x": {"Points": [{"co": {"Y": 0.0, "X": 1.0}, "interpolation": 2}]}, "start": 0, "rotation": {"Points": [{"co": {"Y": 0.0, "X": 1.0}, "interpolation": 2}]}, "position": 932.48, "waveform": false, "display": 0, "wave_color": {"red": {"Points": [{"co": {"Y": 0.0, "X": 1.0}, "handle_left": {"Y": 1.0, "X": 0.5}, "handle_right": {"Y": 0.0, "X": 0.5}, "handle_type": 0, "interpolation": 0}]}, "alpha": {"Points": [{"co": {"Y": 255.0, "X": 1.0}, "handle_left": {"Y": 1.0, "X": 0.5}, "handle_right": {"Y": 0.0, "X": 0.5}, "handle_type": 0, "interpolation": 0}]}, "blue": {"Points": [{"co": {"Y": 255.0, "X": 1.0}, "handle_left": {"Y": 1.0, "X": 0.5}, "handle_right": {"Y": 0.0, "X": 0.5}, "handle_type": 0, "interpolation": 0}]}, "green": {"Points": [{"co": {"Y": 123.0, "X": 1.0}, "handle_left": {"Y": 1.0, "X": 0.5}, "handle_right": {"Y": 0.0, "X": 0.5}, "handle_type": 0, "interpolation": 0}]}}, "anchor": 0, "file_id": "NY6JDKZW6S", "has_video": {"Points": [{"co": {"Y": -1.0, "X": 1.0}, "interpolation": 2}]}, "id": "SV9NDKOXQX", "perspective_c2_x": {"Points": [{"co": {"Y": -1.0, "X": 1.0}, "interpolation": 2}]}, "layer": 0, "effects": [], "reader": {"has_audio": true, "top_field_first": true, "video_stream_index": 0, "video_bit_rate": 17140864, "audio_bit_rate": 127999, "audio_stream_index": 1, "pixel_format": 0, "fps": {"den": 1, "num": 50}, "video_timebase": {"den": 90000, "num": 1}, "video_length": "44408", "channel_layout": 3, "interlaced_frame": false, "vcodec": "h264", "path": "HDV_0264.MP4", "display_ratio": {"den": 9, "num": 16}, "duration": 888.170654296875, "acodec": "aac", "audio_timebase": {"den": 90000, "num": 1}, "width": 1920, "sample_rate": 48000, "pixel_ratio": {"den": 1, "num": 1}, "channels": 2, "has_single_image": false, "has_video": true, "file_size": "1903001600", "type": "FFmpegReader", "height": 1080}, "crop_height": {"Points": [{"co": {"Y": -1.0, "X": 1.0}, "interpolation": 2}]}, "perspective_c4_y": {"Points": [{"co": {"Y": -1.0, "X": 1.0}, "interpolation": 2}]}, "image": "../../../../../.openshot_qt/thumbnail/NY6JDKZW6S.png", "crop_y": {"Points": [{"co": {"Y": 0.0, "X": 1.0}, "interpolation": 2}]}, "title": "HDV_0264.MP4", "perspective_c1_x": {"Points": [{"co": {"Y": -1.0, "X": 1.0}, "interpolation": 2}]}, "volume": {"Points": [{"co": {"Y": 1.0, "X": 1.0}, "interpolation": 2}, {"co": {"Y": 0.0, "X": 21317.0}, "handle_left": {"Y": 1.0, "X": 0.5}, "handle_right": {"Y": 0.0, "X": 0.5}, "handle_type": 0, "interpolation": 0}, {"co": {"Y": 1.0, "X": 1.0}, "handle_left": {"Y": 1.0, "X": 0.5}, "handle_right": {"Y": 0.0, "X": 0.5}, "handle_type": 0, "interpolation": 0}, {"interpolation": 0, "handle_left": {"Y": 1.0, "X": 0.5}, "handle_right": {"Y": 0.0, "X": 0.5}, "handle_type": 0, "co": {"Y": 0.0, "X": 1.0}}, {"co": {"Y": 0.0, "X": 1.0}, "handle_left": {"Y": 1.0, "X": 0.5}, "handle_right": {"Y": 0.0, "X": 0.5}, "handle_type": 0, "interpolation": 0}, {"interpolation": 0, "handle_left": {"X": 0.5, "Y": 1.0}, "handle_right": {"X": 0.5, "Y": 0.0}, "handle_type": 0, "co": {"X": 1.0, "Y": 0.0}}]}, "perspective_c1_y": {"Points": [{"co": {"Y": -1.0, "X": 1.0}, "interpolation": 2}]}, "time": {"Points": [{"co": {"Y": 1.0, "X": 1.0}, "interpolation": 2}]}, "has_audio": {"Points": [{"co": {"Y": -1.0, "X": 1.0}, "interpolation": 2}]}, "shear_y": {"Points": [{"co": {"Y": 0.0, "X": 1.0}, "interpolation": 2}]}, "location_y": {"Points": [{"co": {"Y": 0.0, "X": 1.0}, "interpolation": 2}]}, "crop_width": {"Points": [{"co": {"Y": -1.0, "X": 1.0}, "interpolation": 2}]}, "perspective_c3_x": {"Points": [{"co": {"Y": -1.0, "X": 1.0}, "interpolation": 2}]}, "channel_mapping": {"Points": [{"co": {"Y": -1.0, "X": 1.0}, "interpolation": 2}]}, "scale": 1, "duration": 888.170654296875, "perspective_c3_y": {"Points": [{"co": {"Y": -1.0, "X": 1.0}, "interpolation": 2}]}, "scale_y": {"Points": [{"co": {"Y": 1.0, "X": 1.0}, "interpolation": 2}]}}, {"crop_x": {"Points": [{"co": {"Y": 0.0, "X": 1.0}, "interpolation": 2}]}, "start": 1.8499999999999999, "alpha": {"Points": [{"co": {"Y": 1.0, "X": 1.0}, "interpolation": 2}]}, "shear_x": {"Points": [{"co": {"Y": 0.0, "X": 1.0}, "interpolation": 2}]}, "has_audio": {"Points": [{"co": {"Y": -1.0, "X": 1.0}, "interpolation": 2}]}, "rotation": {"Points": [{"co": {"Y": 0.0, "X": 1.0}, "interpolation": 2}]}, "position": 10.12, "display": 0, "waveform": false, "shear_y": {"Points": [{"co": {"Y": 0.0, "X": 1.0}, "interpolation": 2}]}, "location_y": {"Points": [{"co": {"Y": 0.0, "X": 1.0}, "interpolation": 2}]}, "effects": [], "gravity": 4, "wave_color": {"red": {"Points": [{"co": {"Y": 0.0, "X": 1.0}, "handle_left": {"Y": 1.0, "X": 0.5}, "handle_right": {"Y": 0.0, "X": 0.5}, "handle_type": 0, "interpolation": 0}]}, "alpha": {"Points": [{"co": {"Y": 255.0, "X": 1.0}, "handle_left": {"Y": 1.0, "X": 0.5}, "handle_right": {"Y": 0.0, "X": 0.5}, "handle_type": 0, "interpolation": 0}]}, "blue": {"Points": [{"co": {"Y": 255.0, "X": 1.0}, "handle_left": {"Y": 1.0, "X": 0.5}, "handle_right": {"Y": 0.0, "X": 0.5}, "handle_type": 0, "interpolation": 0}]}, "green": {"Points": [{"co": {"Y": 123.0, "X": 1.0}, "handle_left": {"Y": 1.0, "X": 0.5}, "handle_right": {"Y": 0.0, "X": 0.5}, "handle_type": 0, "interpolation": 0}]}}, "volume": {"Points": [{"co": {"Y": 1.0, "X": 1.0}, "interpolation": 2}]}, "reader": {"has_audio": false, "top_field_first": true, "video_stream_index": -1, "video_bit_rate": 0, "audio_bit_rate": 0, "audio_stream_index": -1, "pixel_format": -1, "fps": {"den": 1, "num": 30}, "video_timebase": {"den": 30, "num": 1}, "video_length": "2592000", "channel_layout": 4, "interlaced_frame": false, "vcodec": "", "path": "assets/OJCN_Steve.svg", "display_ratio": {"den": 9, "num": 16}, "duration": 86400.0, "acodec": "", "audio_timebase": {"den": 1, "num": 1}, "width": 1920, "sample_rate": 0, "pixel_ratio": {"den": 1, "num": 1}, "channels": 0, "has_single_image": true, "has_video": true, "file_size": "8294400", "type": "QtImageReader", "height": 1080}, "crop_width": {"Points": [{"co": {"Y": -1.0, "X": 1.0}, "interpolation": 2}]}, "perspective_c3_x": {"Points": [{"co": {"Y": -1.0, "X": 1.0}, "interpolation": 2}]}, "time": {"Points": [{"co": {"Y": 1.0, "X": 1.0}, "interpolation": 2}]}, "crop_height": {"Points": [{"co": {"Y": -1.0, "X": 1.0}, "interpolation": 2}]}, "channel_mapping": {"Points": [{"co": {"Y": -1.0, "X": 1.0}, "interpolation": 2}]}, "perspective_c4_y": {"Points": [{"co": {"Y": -1.0, "X": 1.0}, "interpolation": 2}]}, "image": "../../../../../.openshot_qt/thumbnail/ED1VRWURIP.png", "perspective_c1_y": {"Points": [{"co": {"Y": -1.0, "X": 1.0}, "interpolation": 2}]}, "scale_x": {"Points": [{"co": {"Y": 1.0, "X": 1.0}, "interpolation": 2}]}, "scale": 1, "perspective_c4_x": {"Points": [{"co": {"Y": -1.0, "X": 1.0}, "interpolation": 2}]}, "crop_y": {"Points": [{"co": {"Y": 0.0, "X": 1.0}, "interpolation": 2}]}, "file_id": "ED1VRWURIP", "perspective_c2_x": {"Points": [{"co": {"Y": -1.0, "X": 1.0}, "interpolation": 2}]}, "duration": 86400.0, "id": "BCSID6Q063", "perspective_c2_y": {"Points": [{"co": {"Y": -1.0, "X": 1.0}, "interpolation": 2}]}, "layer": 0, "end": 11.52, "perspective_c3_y": {"Points": [{"co": {"Y": -1.0, "X": 1.0}, "interpolation": 2}]}, "location_x": {"Points": [{"co": {"Y": 0.0, "X": 1.0}, "interpolation": 2}]}, "title": "OJCN_Steve.svg", "channel_filter": {"Points": [{"co": {"Y": -1.0, "X": 1.0}, "interpolation": 2}]}, "anchor": 0, "has_video": {"Points": [{"co": {"Y": -1.0, "X": 1.0}, "interpolation": 2}]}, "scale_y": {"Points": [{"co": {"Y": 1.0, "X": 1.0}, "interpolation": 2}]}, "perspective_c1_x": {"Points": [{"co": {"Y": -1.0, "X": 1.0}, "interpolation": 2}]}}, {"crop_x": {"Points": [{"interpolation": 2, "co": {"Y": 0.0, "X": 1.0}}]}, "start": 177.29166666666666, "alpha": {"Points": [{"co": {"Y": 1.0, "X": 1.0}, "handle_left": {"Y": 1.0, "X": 0.5}, "handle_right": {"Y": 0.0, "X": 0.5}, "handle_type": 0, "interpolation": 0}]}, "shear_x": {"Points": [{"interpolation": 2, "co": {"Y": 0.0, "X": 1.0}}]}, "has_audio": {"Points": [{"interpolation": 2, "co": {"Y": -1.0, "X": 1.0}}]}, "rotation": {"Points": [{"interpolation": 2, "co": {"Y": 0.0, "X": 1.0}}]}, "position": 0, "display": 0, "waveform": false, "shear_y": {"Points": [{"interpolation": 2, "co": {"Y": 0.0, "X": 1.0}}]}, "location_y": {"Points": [{"interpolation": 2, "co": {"Y": 0.0, "X": 1.0}}]}, "effects": [], "gravity": 4, "wave_color": {"red": {"Points": [{"interpolation": 0, "handle_left": {"Y": 1.0, "X": 0.5}, "handle_right": {"Y": 0.0, "X": 0.5}, "handle_type": 0, "co": {"Y": 0.0, "X": 1.0}}]}, "alpha": {"Points": [{"interpolation": 0, "handle_left": {"Y": 1.0, "X": 0.5}, "handle_right": {"Y": 0.0, "X": 0.5}, "handle_type": 0, "co": {"Y": 255.0, "X": 1.0}}]}, "blue": {"Points": [{"interpolation": 0, "handle_left": {"Y": 1.0, "X": 0.5}, "handle_right": {"Y": 0.0, "X": 0.5}, "handle_type": 0, "co": {"Y": 255.0, "X": 1.0}}]}, "green": {"Points": [{"interpolation": 0, "handle_left": {"Y": 1.0, "X": 0.5}, "handle_right": {"Y": 0.0, "X": 0.5}, "handle_type": 0, "co": {"Y": 123.0, "X": 1.0}}]}}, "volume": {"Points": [{"interpolation": 2, "co": {"Y": 1.0, "X": 1.0}}, {"interpolation": 0, "handle_left": {"Y": 1.0, "X": 0.5}, "handle_right": {"Y": 0.0, "X": 0.5}, "handle_type": 0, "co": {"Y": 0.0, "X": 1.0}}, {"interpolation": 0, "handle_left": {"Y": 1.0, "X": 0.5}, "handle_right": {"Y": 0.0, "X": 0.5}, "handle_type": 0, "co": {"Y": 1.0, "X": 1.0}}, {"co": {"Y": 1.0, "X": 48150.0}, "handle_left": {"Y": 1.0, "X": 0.5}, "handle_right": {"Y": 0.0, "X": 0.5}, "handle_type": 0, "interpolation": 0}, {"co": {"Y": 0.0, "X": 48222.0}, "handle_left": {"Y": 1.0, "X": 0.5}, "handle_right": {"Y": 0.0, "X": 0.5}, "handle_type": 0, "interpolation": 0}, {"interpolation": 0, "handle_left": {"Y": 1.0, "X": 0.5}, "handle_right": {"Y": 0.0, "X": 0.5}, "handle_type": 0, "co": {"Y": 0.0, "X": 4256.0}}, {"interpolation": 0, "handle_left": {"Y": 1.0, "X": 0.5}, "handle_right": {"Y": 0.0, "X": 0.5}, "handle_type": 0, "co": {"Y": 1.0, "X": 4328.0}}, {"co": {"Y": 0.0, "X": 4256.0}, "handle_left": {"Y": 1.0, "X": 0.5}, "handle_right": {"Y": 0.0, "X": 0.5}, "handle_type": 0, "interpolation": 0}]}, "reader": {"has_audio": true, "top_field_first": true, "video_stream_index": -1, "video_bit_rate": 0, "audio_bit_rate": 4608000, "audio_stream_index": 0, "pixel_format": -1, "fps": {"den": 1, "num": 24}, "video_timebase": {"den": 24, "num": 1}, "video_length": "48220", "channel_layout": 3, "interlaced_frame": false, "vcodec": "", "path": "ZOOM0001.WAV", "display_ratio": {"den": 1, "num": 1}, "duration": 2009.202026367188, "acodec": "pcm_s24le", "audio_timebase": {"den": 96000, "num": 1}, "width": 720, "sample_rate": 96000, "pixel_ratio": {"den": 1, "num": 1}, "channels": 2, "has_single_image": false, "has_video": false, "file_size": "1157333120", "type": "FFmpegReader", "height": 480}, "crop_width": {"Points": [{"interpolation": 2, "co": {"Y": -1.0, "X": 1.0}}]}, "perspective_c3_x": {"Points": [{"interpolation": 2, "co": {"Y": -1.0, "X": 1.0}}]}, "time": {"Points": [{"interpolation": 2, "co": {"Y": 1.0, "X": 1.0}}]}, "crop_height": {"Points": [{"interpolation": 2, "co": {"Y": -1.0, "X": 1.0}}]}, "channel_mapping": {"Points": [{"interpolation": 2, "co": {"Y": -1.0, "X": 1.0}}]}, "perspective_c4_y": {"Points": [{"interpolation": 2, "co": {"Y": -1.0, "X": 1.0}}]}, "image": "../../../../../.openshot_qt/thumbnail/4L2Y0A4C7L-4256.png", "perspective_c1_y": {"Points": [{"interpolation": 2, "co": {"Y": -1.0, "X": 1.0}}]}, "scale_x": {"Points": [{"interpolation": 2, "co": {"Y": 1.0, "X": 1.0}}]}, "scale": 1, "perspective_c4_x": {"Points": [{"interpolation": 2, "co": {"Y": -1.0, "X": 1.0}}]}, "crop_y": {"Points": [{"interpolation": 2, "co": {"Y": 0.0, "X": 1.0}}]}, "file_id": "5YOYECQDMZ", "perspective_c2_x": {"Points": [{"interpolation": 2, "co": {"Y": -1.0, "X": 1.0}}]}, "duration": 2009.202026367188, "perspective_c1_x": {"Points": [{"interpolation": 2, "co": {"Y": -1.0, "X": 1.0}}]}, "perspective_c2_y": {"Points": [{"interpolation": 2, "co": {"Y": -1.0, "X": 1.0}}]}, "layer": 1, "end": 2009.202026367188, "perspective_c3_y": {"Points": [{"interpolation": 2, "co": {"Y": -1.0, "X": 1.0}}]}, "location_x": {"Points": [{"interpolation": 2, "co": {"Y": 0.0, "X": 1.0}}]}, "title": "ZOOM0001.WAV", "channel_filter": {"Points": [{"interpolation": 2, "co": {"Y": -1.0, "X": 1.0}}]}, "anchor": 0, "has_video": {"Points": [{"interpolation": 2, "co": {"Y": -1.0, "X": 1.0}}]}, "scale_y": {"Points": [{"interpolation": 2, "co": {"Y": 1.0, "X": 1.0}}]}, "id": "4L2Y0A4C7L"}, {"crop_x": {"Points": [{"co": {"Y": 0.0, "X": 1.0}, "interpolation": 2}]}, "start": 0, "alpha": {"Points": [{"co": {"Y": 1.0, "X": 1.0}, "handle_left": {"Y": 1.0, "X": 0.5}, "handle_right": {"Y": 0.0, "X": 0.5}, "handle_type": 0, "interpolation": 0}]}, "shear_x": {"Points": [{"co": {"Y": 0.0, "X": 1.0}, "interpolation": 2}]}, "has_audio": {"Points": [{"co": {"Y": -1.0, "X": 1.0}, "interpolation": 2}]}, "perspective_c2_x": {"Points": [{"co": {"Y": -1.0, "X": 1.0}, "interpolation": 2}]}, "position": 0.04, "display": 0, "waveform": false, "shear_y": {"Points": [{"co": {"Y": 0.0, "X": 1.0}, "interpolation": 2}]}, "location_y": {"Points": [{"co": {"Y": 0.0, "X": 1.0}, "interpolation": 2}]}, "effects": [], "gravity": 4, "wave_color": {"red": {"Points": [{"co": {"Y": 0.0, "X": 1.0}, "handle_left": {"Y": 1.0, "X": 0.5}, "handle_right": {"Y": 0.0, "X": 0.5}, "handle_type": 0, "interpolation": 0}]}, "alpha": {"Points": [{"co": {"Y": 255.0, "X": 1.0}, "handle_left": {"Y": 1.0, "X": 0.5}, "handle_right": {"Y": 0.0, "X": 0.5}, "handle_type": 0, "interpolation": 0}]}, "blue": {"Points": [{"co": {"Y": 255.0, "X": 1.0}, "handle_left": {"Y": 1.0, "X": 0.5}, "handle_right": {"Y": 0.0, "X": 0.5}, "handle_type": 0, "interpolation": 0}]}, "green": {"Points": [{"co": {"Y": 123.0, "X": 1.0}, "handle_left": {"Y": 1.0, "X": 0.5}, "handle_right": {"Y": 0.0, "X": 0.5}, "handle_type": 0, "interpolation": 0}]}}, "volume": {"Points": [{"co": {"Y": 1.0, "X": 1.0}, "interpolation": 2}]}, "reader": {"has_audio": false, "top_field_first": true, "video_stream_index": -1, "video_bit_rate": 0, "audio_bit_rate": 0, "audio_stream_index": -1, "pixel_format": -1, "fps": {"den": 1, "num": 30}, "video_timebase": {"den": 30, "num": 1}, "video_length": "2592000", "channel_layout": 4, "interlaced_frame": false, "vcodec": "", "path": "assets/SymphBeet.svg", "display_ratio": {"den": 9, "num": 16}, "duration": 86400.0, "acodec": "", "audio_timebase": {"den": 1, "num": 1}, "width": 1920, "sample_rate": 0, "pixel_ratio": {"den": 1, "num": 1}, "channels": 0, "has_single_image": true, "has_video": true, "file_size": "8294400", "type": "QtImageReader", "height": 1080}, "crop_width": {"Points": [{"co": {"Y": -1.0, "X": 1.0}, "interpolation": 2}]}, "perspective_c3_x": {"Points": [{"co": {"Y": -1.0, "X": 1.0}, "interpolation": 2}]}, "time": {"Points": [{"co": {"Y": 1.0, "X": 1.0}, "interpolation": 2}]}, "crop_height": {"Points": [{"co": {"Y": -1.0, "X": 1.0}, "interpolation": 2}]}, "channel_mapping": {"Points": [{"co": {"Y": -1.0, "X": 1.0}, "interpolation": 2}]}, "perspective_c4_y": {"Points": [{"co": {"Y": -1.0, "X": 1.0}, "interpolation": 2}]}, "anchor": 0, "image": "../../../../../.openshot_qt/thumbnail/YYO8CY13MX.png", "perspective_c1_y": {"Points": [{"co": {"Y": -1.0, "X": 1.0}, "interpolation": 2}]}, "scale": 1, "scale_x": {"Points": [{"co": {"Y": 1.0, "X": 1.0}, "interpolation": 2}]}, "perspective_c4_x": {"Points": [{"co": {"Y": -1.0, "X": 1.0}, "interpolation": 2}]}, "crop_y": {"Points": [{"co": {"Y": 0.0, "X": 1.0}, "interpolation": 2}]}, "channel_filter": {"Points": [{"co": {"Y": -1.0, "X": 1.0}, "interpolation": 2}]}, "rotation": {"Points": [{"co": {"Y": 0.0, "X": 1.0}, "interpolation": 2}]}, "duration": 86400.0, "id": "9XLQXDVLBJ", "layer": 0, "end": 10, "perspective_c3_y": {"Points": [{"co": {"Y": -1.0, "X": 1.0}, "interpolation": 2}]}, "location_x": {"Points": [{"co": {"Y": 0.0, "X": 1.0}, "interpolation": 2}]}, "perspective_c2_y": {"Points": [{"co": {"Y": -1.0, "X": 1.0}, "interpolation": 2}]}, "file_id": "YYO8CY13MX", "title": "SymphBeet.svg", "has_video": {"Points": [{"co": {"Y": -1.0, "X": 1.0}, "interpolation": 2}]}, "scale_y": {"Points": [{"co": {"Y": 1.0, "X": 1.0}, "interpolation": 2}]}, "perspective_c1_x": {"Points": [{"co": {"Y": -1.0, "X": 1.0}, "interpolation": 2}]}}, {"crop_x": {"Points": [{"interpolation": 2, "co": {"Y": 0.0, "X": 1.0}}]}, "start": 0, "alpha": {"Points": [{"interpolation": 2, "co": {"Y": 1.0, "X": 1.0}}, {"interpolation": 0, "handle_left": {"Y": 1.0, "X": 0.5}, "handle_right": {"Y": 0.0, "X": 0.5}, "handle_type": 0, "co": {"Y": 0.0, "X": 1.0}}, {"interpolation": 0, "handle_left": {"Y": 1.0, "X": 0.5}, "handle_right": {"Y": 0.0, "X": 0.5}, "handle_type": 0, "co": {"Y": 1.0, "X": 25.0}}, {"co": {"Y": 1.0, "X": 169.0}, "handle_left": {"Y": 1.0, "X": 0.5}, "handle_right": {"Y": 0.0, "X": 0.5}, "handle_type": 0, "interpolation": 0}, {"co": {"Y": 0.0, "X": 241.0}, "handle_left": {"Y": 1.0, "X": 0.5}, "handle_right": {"Y": 0.0, "X": 0.5}, "handle_type": 0, "interpolation": 0}]}, "shear_x": {"Points": [{"interpolation": 2, "co": {"Y": 0.0, "X": 1.0}}]}, "has_audio": {"Points": [{"interpolation": 2, "co": {"Y": -1.0, "X": 1.0}}]}, "rotation": {"Points": [{"interpolation": 2, "co": {"Y": 0.0, "X": 1.0}}]}, "position": 926.2579727172852, "display": 0, "waveform": false, "shear_y": {"Points": [{"interpolation": 2, "co": {"Y": 0.0, "X": 1.0}}]}, "location_y": {"Points": [{"interpolation": 2, "co": {"Y": 0.0, "X": 1.0}}]}, "effects": [], "gravity": 4, "wave_color": {"red": {"Points": [{"interpolation": 0, "handle_left": {"Y": 1.0, "X": 0.5}, "handle_right": {"Y": 0.0, "X": 0.5}, "handle_type": 0, "co": {"Y": 0.0, "X": 1.0}}]}, "alpha": {"Points": [{"interpolation": 0, "handle_left": {"Y": 1.0, "X": 0.5}, "handle_right": {"Y": 0.0, "X": 0.5}, "handle_type": 0, "co": {"Y": 255.0, "X": 1.0}}]}, "blue": {"Points": [{"interpolation": 0, "handle_left": {"Y": 1.0, "X": 0.5}, "handle_right": {"Y": 0.0, "X": 0.5}, "handle_type": 0, "co": {"Y": 255.0, "X": 1.0}}]}, "green": {"Points": [{"interpolation": 0, "handle_left": {"Y": 1.0, "X": 0.5}, "handle_right": {"Y": 0.0, "X": 0.5}, "handle_type": 0, "co": {"Y": 123.0, "X": 1.0}}]}}, "volume": {"Points": [{"interpolation": 2, "co": {"Y": 1.0, "X": 1.0}}]}, "reader": {"has_audio": false, "top_field_first": true, "video_stream_index": -1, "video_bit_rate": 0, "audio_bit_rate": 0, "audio_stream_index": -1, "pixel_format": -1, "fps": {"den": 1, "num": 30}, "video_timebase": {"den": 30, "num": 1}, "video_length": "2592000", "channel_layout": 4, "interlaced_frame": false, "vcodec": "", "path": "assets/diparue.svg", "display_ratio": {"den": 9, "num": 16}, "duration": 86400.0, "acodec": "", "audio_timebase": {"den": 1, "num": 1}, "width": 1920, "sample_rate": 0, "pixel_ratio": {"den": 1, "num": 1}, "channels": 0, "has_single_image": true, "has_video": true, "file_size": "8294400", "type": "QtImageReader", "height": 1080}, "crop_width": {"Points": [{"interpolation": 2, "co": {"Y": -1.0, "X": 1.0}}]}, "perspective_c3_x": {"Points": [{"interpolation": 2, "co": {"Y": -1.0, "X": 1.0}}]}, "time": {"Points": [{"interpolation": 2, "co": {"Y": 1.0, "X": 1.0}}]}, "crop_height": {"Points": [{"interpolation": 2, "co": {"Y": -1.0, "X": 1.0}}]}, "channel_mapping": {"Points": [{"interpolation": 2, "co": {"Y": -1.0, "X": 1.0}}]}, "perspective_c4_y": {"Points": [{"interpolation": 2, "co": {"Y": -1.0, "X": 1.0}}]}, "image": "../../../../../.openshot_qt/thumbnail/N2EON0LALH.png", "perspective_c1_y": {"Points": [{"interpolation": 2, "co": {"Y": -1.0, "X": 1.0}}]}, "scale_x": {"Points": [{"interpolation": 2, "co": {"Y": 1.0, "X": 1.0}}]}, "scale": 1, "perspective_c4_x": {"Points": [{"interpolation": 2, "co": {"Y": -1.0, "X": 1.0}}]}, "crop_y": {"Points": [{"interpolation": 2, "co": {"Y": 0.0, "X": 1.0}}]}, "file_id": "N2EON0LALH", "perspective_c2_x": {"Points": [{"interpolation": 2, "co": {"Y": -1.0, "X": 1.0}}]}, "duration": 86400.0, "id": "VGE4JA775R", "perspective_c2_y": {"Points": [{"interpolation": 2, "co": {"Y": -1.0, "X": 1.0}}]}, "layer": 0, "end": 10, "perspective_c3_y": {"Points": [{"interpolation": 2, "co": {"Y": -1.0, "X": 1.0}}]}, "location_x": {"Points": [{"interpolation": 2, "co": {"Y": 0.0, "X": 1.0}}]}, "title": "diparue.svg", "channel_filter": {"Points": [{"interpolation": 2, "co": {"Y": -1.0, "X": 1.0}}]}, "anchor": 0, "has_video": {"Points": [{"interpolation": 2, "co": {"Y": -1.0, "X": 1.0}}]}, "scale_y": {"Points": [{"interpolation": 2, "co": {"Y": 1.0, "X": 1.0}}]}, "perspective_c1_x": {"Points": [{"interpolation": 2, "co": {"Y": -1.0, "X": 1.0}}]}}], "scale": 158, "files": [{"media_type": "video", "top_field_first": true, "video_stream_index": 0, "video_bit_rate": 17142036, "audio_bit_rate": 128002, "audio_stream_index": 1, "pixel_format": 0, "fps": {"den": 1, "num": 50}, "video_timebase": {"den": 90000, "num": 1}, "video_length": "45302", "channel_layout": 3, "audio_timebase": {"den": 90000, "num": 1}, "vcodec": "h264", "has_audio": true, "path": "HDV_0263.MP4", "display_ratio": {"den": 9, "num": 16}, "duration": 906.0479736328125, "acodec": "aac", "width": 1920, "sample_rate": 48000, "pixel_ratio": {"den": 1, "num": 1}, "interlaced_frame": false, "channels": 2, "has_single_image": false, "has_video": true, "file_size": "1941438464", "id": "9D4U86RADQ", "type": "FFmpegReader", "height": 1080}, {"media_type": "video", "top_field_first": true, "video_stream_index": 0, "video_bit_rate": 17140864, "audio_bit_rate": 127999, "audio_stream_index": 1, "pixel_format": 0, "fps": {"den": 1, "num": 50}, "video_timebase": {"den": 90000, "num": 1}, "video_length": "44408", "channel_layout": 3, "audio_timebase": {"den": 90000, "num": 1}, "vcodec": "h264", "has_audio": true, "path": "HDV_0264.MP4", "display_ratio": {"den": 9, "num": 16}, "duration": 888.170654296875, "acodec": "aac", "width": 1920, "sample_rate": 48000, "pixel_ratio": {"den": 1, "num": 1}, "interlaced_frame": false, "channels": 2, "has_single_image": false, "has_video": true, "file_size": "1903001600", "id": "NY6JDKZW6S", "type": "FFmpegReader", "height": 1080}, {"media_type": "audio", "top_field_first": true, "video_stream_index": -1, "video_bit_rate": 0, "audio_bit_rate": 4608000, "audio_stream_index": 0, "pixel_format": -1, "fps": {"den": 1, "num": 24}, "video_timebase": {"den": 24, "num": 1}, "video_length": "48220", "channel_layout": 3, "audio_timebase": {"den": 96000, "num": 1}, "vcodec": "", "has_audio": true, "path": "ZOOM0001.WAV", "display_ratio": {"den": 1, "num": 1}, "duration": 2009.202026367188, "acodec": "pcm_s24le", "width": 720, "sample_rate": 96000, "pixel_ratio": {"den": 1, "num": 1}, "interlaced_frame": false, "channels": 2, "has_single_image": false, "has_video": false, "file_size": "1157333120", "id": "5YOYECQDMZ", "type": "FFmpegReader", "height": 480}, {"media_type": "image", "top_field_first": true, "video_stream_index": -1, "video_bit_rate": 0, "audio_bit_rate": 0, "audio_stream_index": -1, "pixel_format": -1, "fps": {"den": 1, "num": 30}, "video_timebase": {"den": 30, "num": 1}, "video_length": "2592000", "channel_layout": 4, "audio_timebase": {"den": 1, "num": 1}, "vcodec": "", "has_audio": false, "path": "assets/SymphBeet.svg", "display_ratio": {"den": 9, "num": 16}, "duration": 86400.0, "acodec": "", "width": 1920, "sample_rate": 0, "pixel_ratio": {"den": 1, "num": 1}, "interlaced_frame": false, "channels": 0, "has_single_image": true, "has_video": true, "file_size": "8294400", "id": "YYO8CY13MX", "type": "QtImageReader", "height": 1080}, {"media_type": "image", "top_field_first": true, "video_stream_index": -1, "video_bit_rate": 0, "audio_bit_rate": 0, "audio_stream_index": -1, "pixel_format": -1, "fps": {"den": 1, "num": 30}, "video_timebase": {"den": 30, "num": 1}, "video_length": "2592000", "channel_layout": 4, "audio_timebase": {"den": 1, "num": 1}, "vcodec": "", "has_audio": false, "path": "assets/OJCN_Steve.svg", "display_ratio": {"den": 9, "num": 16}, "duration": 86400.0, "acodec": "", "width": 1920, "sample_rate": 0, "pixel_ratio": {"den": 1, "num": 1}, "interlaced_frame": false, "channels": 0, "has_single_image": true, "has_video": true, "file_size": "8294400", "id": "ED1VRWURIP", "type": "QtImageReader", "height": 1080}, {"media_type": "image", "top_field_first": true, "video_stream_index": -1, "video_bit_rate": 0, "audio_bit_rate": 0, "audio_stream_index": -1, "pixel_format": -1, "fps": {"den": 1, "num": 30}, "video_timebase": {"den": 30, "num": 1}, "video_length": "2592000", "channel_layout": 4, "interlaced_frame": false, "vcodec": "", "has_audio": false, "path": "assets/diparue.svg", "display_ratio": {"den": 9, "num": 16}, "duration": 86400.0, "acodec": "", "audio_timebase": {"den": 1, "num": 1}, "width": 1920, "sample_rate": 0, "pixel_ratio": {"den": 1, "num": 1}, "channels": 0, "has_single_image": true, "has_video": true, "file_size": "8294400", "id": "N2EON0LALH", "type": "QtImageReader", "height": 1080}], "layers": [{"y": 0, "lock": false, "label": "video", "id": "L0", "number": 0}, {"y": 0, "lock": false, "label": "audio", "id": "L1", "number": 1}], "duration": 2837.292026367188, "progress": [], "settings": {}, "sample_rate": 44100, "profile": "HDV 720 24p", "channels": 2, "version": {"libopenshot": "0.1.9", "openshot-qt": "2.4.1"}, "tick_pixels": 100, "id": "T0", "history": {"undo": [{"key": ["scale"], "old_values": 98, "type": "update", "partial": false, "value": 99}, {"key": ["scale"], "old_values": 99, "type": "update", "partial": false, "value": 103}, {"key": ["scale"], "old_values": 103, "type": "update", "partial": false, "value": 114}, {"key": ["scale"], "old_values": 114, "type": "update", "partial": false, "value": 118}, {"key": ["scale"], "old_values": 118, "type": "update", "partial": false, "value": 120}, {"key": ["scale"], "old_values": 120, "type": "update", "partial": false, "value": 121}, {"key": ["scale"], "old_values": 121, "type": "update", "partial": false, "value": 127}, {"key": ["scale"], "old_values": 127, "type": "update", "partial": false, "value": 128}, {"key": ["scale"], "old_values": 128, "type": "update", "partial": false, "value": 140}, {"key": ["scale"], "old_values": 140, "type": "update", "partial": false, "value": 142}, {"key": ["scale"], "old_values": 142, "type": "update", "partial": false, "value": 143}, {"key": ["scale"], "old_values": 143, "type": "update", "partial": false, "value": 152}, {"key": ["scale"], "old_values": 152, "type": "update", "partial": false, "value": 155}, {"key": ["scale"], "old_values": 155, "type": "update", "partial": false, "value": 158}, {"key": ["markers", {"id": "71STLH1D5D"}], "old_values": {"position": 206.95833333333334, "icon": "blue.png", "id": "71STLH1D5D"}, "type": "delete", "partial": false, "value": null}, {"key": ["markers", {"id": "4OVXG9ZF73"}], "old_values": {"position": 206.95833333333334, "icon": "blue.png", "id": "4OVXG9ZF73"}, "type": "delete", "partial": false, "value": null}, {"key": ["clips", {"id": "RJ6XKRUDAB"}], "old_values": {"crop_x": {"Points": [{"interpolation": 2, "co": {"Y": 0.0, "X": 1.0}}]}, "start": 0, "alpha": {"Points": [{"co": {"Y": 1.0, "X": 1.0}, "handle_left": {"Y": 1.0, "X": 0.5}, "handle_right": {"Y": 0.0, "X": 0.5}, "handle_type": 0, "interpolation": 0}]}, "shear_x": {"Points": [{"interpolation": 2, "co": {"Y": 0.0, "X": 1.0}}]}, "has_audio": {"Points": [{"interpolation": 2, "co": {"Y": -1.0, "X": 1.0}}]}, "rotation": {"Points": [{"interpolation": 2, "co": {"Y": 0.0, "X": 1.0}}]}, "position": 20.209999084472656, "display": 0, "waveform": false, "shear_y": {"Points": [{"interpolation": 2, "co": {"Y": 0.0, "X": 1.0}}]}, "location_y": {"Points": [{"interpolation": 2, "co": {"Y": 0.0, "X": 1.0}}]}, "effects": [], "wave_color": {"red": {"Points": [{"interpolation": 0, "handle_left": {"Y": 1.0, "X": 0.5}, "handle_right": {"Y": 0.0, "X": 0.5}, "handle_type": 0, "co": {"Y": 0.0, "X": 1.0}}]}, "alpha": {"Points": [{"interpolation": 0, "handle_left": {"Y": 1.0, "X": 0.5}, "handle_right": {"Y": 0.0, "X": 0.5}, "handle_type": 0, "co": {"Y": 255.0, "X": 1.0}}]}, "blue": {"Points": [{"interpolation": 0, "handle_left": {"Y": 1.0, "X": 0.5}, "handle_right": {"Y": 0.0, "X": 0.5}, "handle_type": 0, "co": {"Y": 255.0, "X": 1.0}}]}, "green": {"Points": [{"interpolation": 0, "handle_left": {"Y": 1.0, "X": 0.5}, "handle_right": {"Y": 0.0, "X": 0.5}, "handle_type": 0, "co": {"Y": 123.0, "X": 1.0}}]}}, "volume": {"Points": [{"co": {"X": 1.0, "Y": 1.0}, "handle_left": {"X": 0.5, "Y": 1.0}, "handle_right": {"X": 0.5, "Y": 0.0}, "handle_type": 0, "interpolation": 0}, {"interpolation": 0, "handle_left": {"X": 0.5, "Y": 1.0}, "handle_right": {"X": 0.5, "Y": 0.0}, "handle_type": 0, "co": {"X": 1.0, "Y": 0.0}}]}, "reader": {"has_audio": true, "top_field_first": true, "video_stream_index": 0, "video_bit_rate": 17142036, "audio_bit_rate": 128002, "audio_stream_index": 1, "pixel_format": 0, "fps": {"den": 1, "num": 50}, "video_timebase": {"den": 90000, "num": 1}, "video_length": "45302", "channel_layout": 3, "audio_timebase": {"den": 90000, "num": 1}, "vcodec": "h264", "path": "/home/niels/Vid\u00e9os/Violon/orchestre/Beethoven_5th_2018/concert_06_05_2018/HDV_0263.MP4", "display_ratio": {"den": 9, "num": 16}, "duration": 906.0479736328125, "acodec": "aac", "width": 1920, "sample_rate": 48000, "pixel_ratio": {"den": 1, "num": 1}, "interlaced_frame": false, "channels": 2, "has_single_image": false, "has_video": true, "file_size": "1941438464", "type": "FFmpegReader", "height": 1080}, "crop_width": {"Points": [{"interpolation": 2, "co": {"Y": -1.0, "X": 1.0}}]}, "perspective_c3_x": {"Points": [{"interpolation": 2, "co": {"Y": -1.0, "X": 1.0}}]}, "time": {"Points": [{"interpolation": 2, "co": {"Y": 1.0, "X": 1.0}}]}, "crop_height": {"Points": [{"interpolation": 2, "co": {"Y": -1.0, "X": 1.0}}]}, "channel_mapping": {"Points": [{"interpolation": 2, "co": {"Y": -1.0, "X": 1.0}}]}, "perspective_c4_y": {"Points": [{"interpolation": 2, "co": {"Y": -1.0, "X": 1.0}}]}, "anchor": 0, "image": "/home/niels/.openshot_qt/thumbnail/9D4U86RADQ.png", "perspective_c1_y": {"Points": [{"interpolation": 2, "co": {"Y": -1.0, "X": 1.0}}]}, "scale_x": {"Points": [{"interpolation": 2, "co": {"Y": 1.0, "X": 1.0}}]}, "scale": 1, "perspective_c4_x": {"Points": [{"interpolation": 2, "co": {"Y": -1.0, "X": 1.0}}]}, "crop_y": {"Points": [{"interpolation": 2, "co": {"Y": 0.0, "X": 1.0}}]}, "file_id": "9D4U86RADQ", "perspective_c2_x": {"Points": [{"interpolation": 2, "co": {"Y": -1.0, "X": 1.0}}]}, "duration": 906.0479736328125, "id": "RJ6XKRUDAB", "perspective_c2_y": {"Points": [{"interpolation": 2, "co": {"Y": -1.0, "X": 1.0}}]}, "layer": 0, "end": 906.0479736328125, "perspective_c3_y": {"Points": [{"interpolation": 2, "co": {"Y": -1.0, "X": 1.0}}]}, "gravity": 4, "title": "HDV_0263.MP4", "channel_filter": {"Points": [{"interpolation": 2, "co": {"Y": -1.0, "X": 1.0}}]}, "location_x": {"Points": [{"interpolation": 2, "co": {"Y": 0.0, "X": 1.0}}]}, "has_video": {"Points": [{"interpolation": 2, "co": {"Y": -1.0, "X": 1.0}}]}, "scale_y": {"Points": [{"interpolation": 2, "co": {"Y": 1.0, "X": 1.0}}]}, "perspective_c1_x": {"Points": [{"interpolation": 2, "co": {"Y": -1.0, "X": 1.0}}]}}, "type": "update", "partial": false, "value": {"crop_x": {"Points": [{"interpolation": 2, "co": {"Y": 0.0, "X": 1.0}}]}, "start": 0, "alpha": {"Points": [{"co": {"Y": 1.0, "X": 1.0}, "handle_left": {"Y": 1.0, "X": 0.5}, "handle_right": {"Y": 0.0, "X": 0.5}, "handle_type": 0, "interpolation": 0}, {"co": {"X": 21674.0, "Y": 1.0}, "handle_left": {"X": 0.5, "Y": 1.0}, "handle_right": {"X": 0.5, "Y": 0.0}, "handle_type": 0, "interpolation": 0}, {"co": {"X": 21746.0, "Y": 0.0}, "handle_left": {"X": 0.5, "Y": 1.0}, "handle_right": {"X": 0.5, "Y": 0.0}, "handle_type": 0, "interpolation": 0}]}, "shear_x": {"Points": [{"interpolation": 2, "co": {"Y": 0.0, "X": 1.0}}]}, "has_audio": {"Points": [{"interpolation": 2, "co": {"Y": -1.0, "X": 1.0}}]}, "rotation": {"Points": [{"interpolation": 2, "co": {"Y": 0.0, "X": 1.0}}]}, "position": 20.209999084472656, "display": 0, "waveform": false, "shear_y": {"Points": [{"interpolation": 2, "co": {"Y": 0.0, "X": 1.0}}]}, "location_y": {"Points": [{"interpolation": 2, "co": {"Y": 0.0, "X": 1.0}}]}, "effects": [], "wave_color": {"red": {"Points": [{"interpolation": 0, "handle_left": {"Y": 1.0, "X": 0.5}, "handle_right": {"Y": 0.0, "X": 0.5}, "handle_type": 0, "co": {"Y": 0.0, "X": 1.0}}]}, "alpha": {"Points": [{"interpolation": 0, "handle_left": {"Y": 1.0, "X": 0.5}, "handle_right": {"Y": 0.0, "X": 0.5}, "handle_type": 0, "co": {"Y": 255.0, "X": 1.0}}]}, "blue": {"Points": [{"interpolation": 0, "handle_left": {"Y": 1.0, "X": 0.5}, "handle_right": {"Y": 0.0, "X": 0.5}, "handle_type": 0, "co": {"Y": 255.0, "X": 1.0}}]}, "green": {"Points": [{"interpolation": 0, "handle_left": {"Y": 1.0, "X": 0.5}, "handle_right": {"Y": 0.0, "X": 0.5}, "handle_type": 0, "co": {"Y": 123.0, "X": 1.0}}]}}, "volume": {"Points": [{"co": {"X": 1.0, "Y": 1.0}, "handle_left": {"X": 0.5, "Y": 1.0}, "handle_right": {"X": 0.5, "Y": 0.0}, "handle_type": 0, "interpolation": 0}, {"interpolation": 0, "handle_left": {"X": 0.5, "Y": 1.0}, "handle_right": {"X": 0.5, "Y": 0.0}, "handle_type": 0, "co": {"X": 1.0, "Y": 0.0}}]}, "anchor": 0, "crop_width": {"Points": [{"interpolation": 2, "co": {"Y": -1.0, "X": 1.0}}]}, "perspective_c3_x": {"Points": [{"interpolation": 2, "co": {"Y": -1.0, "X": 1.0}}]}, "time": {"Points": [{"interpolation": 2, "co": {"Y": 1.0, "X": 1.0}}]}, "crop_height": {"Points": [{"interpolation": 2, "co": {"Y": -1.0, "X": 1.0}}]}, "channel_mapping": {"Points": [{"interpolation": 2, "co": {"Y": -1.0, "X": 1.0}}]}, "perspective_c4_y": {"Points": [{"interpolation": 2, "co": {"Y": -1.0, "X": 1.0}}]}, "image": "/home/niels/.openshot_qt/thumbnail/9D4U86RADQ.png", "perspective_c1_y": {"Points": [{"interpolation": 2, "co": {"Y": -1.0, "X": 1.0}}]}, "scale_x": {"Points": [{"interpolation": 2, "co": {"Y": 1.0, "X": 1.0}}]}, "scale": 1, "perspective_c4_x": {"Points": [{"interpolation": 2, "co": {"Y": -1.0, "X": 1.0}}]}, "crop_y": {"Points": [{"interpolation": 2, "co": {"Y": 0.0, "X": 1.0}}]}, "file_id": "9D4U86RADQ", "perspective_c2_x": {"Points": [{"interpolation": 2, "co": {"Y": -1.0, "X": 1.0}}]}, "duration": 906.0479736328125, "id": "RJ6XKRUDAB", "perspective_c2_y": {"Points": [{"interpolation": 2, "co": {"Y": -1.0, "X": 1.0}}]}, "layer": 0, "end": 906.0479736328125, "perspective_c3_y": {"Points": [{"interpolation": 2, "co": {"Y": -1.0, "X": 1.0}}]}, "gravity": 4, "title": "HDV_0263.MP4", "channel_filter": {"Points": [{"interpolation": 2, "co": {"Y": -1.0, "X": 1.0}}]}, "location_x": {"Points": [{"interpolation": 2, "co": {"Y": 0.0, "X": 1.0}}]}, "has_video": {"Points": [{"interpolation": 2, "co": {"Y": -1.0, "X": 1.0}}]}, "scale_y": {"Points": [{"interpolation": 2, "co": {"Y": 1.0, "X": 1.0}}]}, "perspective_c1_x": {"Points": [{"interpolation": 2, "co": {"Y": -1.0, "X": 1.0}}]}}}, {"key": ["clips", {"id": "RJ6XKRUDAB"}], "old_values": {"crop_x": {"Points": [{"co": {"Y": 0.0, "X": 1.0}, "interpolation": 2}]}, "start": 0, "alpha": {"Points": [{"interpolation": 0, "handle_left": {"Y": 1.0, "X": 0.5}, "handle_right": {"Y": 0.0, "X": 0.5}, "handle_type": 0, "co": {"Y": 1.0, "X": 1.0}}, {"interpolation": 0, "handle_left": {"X": 0.5, "Y": 1.0}, "handle_right": {"X": 0.5, "Y": 0.0}, "handle_type": 0, "co": {"X": 21674.0, "Y": 1.0}}, {"interpolation": 0, "handle_left": {"X": 0.5, "Y": 1.0}, "handle_right": {"X": 0.5, "Y": 0.0}, "handle_type": 0, "co": {"X": 21746.0, "Y": 0.0}}]}, "shear_x": {"Points": [{"co": {"Y": 0.0, "X": 1.0}, "interpolation": 2}]}, "has_audio": {"Points": [{"co": {"Y": -1.0, "X": 1.0}, "interpolation": 2}]}, "rotation": {"Points": [{"co": {"Y": 0.0, "X": 1.0}, "interpolation": 2}]}, "position": 20.209999084472656, "display": 0, "waveform": false, "shear_y": {"Points": [{"co": {"Y": 0.0, "X": 1.0}, "interpolation": 2}]}, "location_y": {"Points": [{"co": {"Y": 0.0, "X": 1.0}, "interpolation": 2}]}, "effects": [], "wave_color": {"red": {"Points": [{"co": {"Y": 0.0, "X": 1.0}, "handle_left": {"Y": 1.0, "X": 0.5}, "handle_right": {"Y": 0.0, "X": 0.5}, "handle_type": 0, "interpolation": 0}]}, "alpha": {"Points": [{"co": {"Y": 255.0, "X": 1.0}, "handle_left": {"Y": 1.0, "X": 0.5}, "handle_right": {"Y": 0.0, "X": 0.5}, "handle_type": 0, "interpolation": 0}]}, "blue": {"Points": [{"co": {"Y": 255.0, "X": 1.0}, "handle_left": {"Y": 1.0, "X": 0.5}, "handle_right": {"Y": 0.0, "X": 0.5}, "handle_type": 0, "interpolation": 0}]}, "green": {"Points": [{"co": {"Y": 123.0, "X": 1.0}, "handle_left": {"Y": 1.0, "X": 0.5}, "handle_right": {"Y": 0.0, "X": 0.5}, "handle_type": 0, "interpolation": 0}]}}, "volume": {"Points": [{"interpolation": 0, "handle_left": {"X": 0.5, "Y": 1.0}, "handle_right": {"X": 0.5, "Y": 0.0}, "handle_type": 0, "co": {"X": 1.0, "Y": 1.0}}, {"co": {"X": 1.0, "Y": 0.0}, "handle_left": {"X": 0.5, "Y": 1.0}, "handle_right": {"X": 0.5, "Y": 0.0}, "handle_type": 0, "interpolation": 0}]}, "reader": {"has_audio": true, "top_field_first": true, "video_stream_index": 0, "video_bit_rate": 17142036, "audio_bit_rate": 128002, "audio_stream_index": 1, "pixel_format": 0, "fps": {"den": 1, "num": 50}, "video_timebase": {"den": 90000, "num": 1}, "video_length": "45302", "channel_layout": 3, "audio_timebase": {"den": 90000, "num": 1}, "vcodec": "h264", "path": "/home/niels/Vid\u00e9os/Violon/orchestre/Beethoven_5th_2018/concert_06_05_2018/HDV_0263.MP4", "display_ratio": {"den": 9, "num": 16}, "duration": 906.0479736328125, "acodec": "aac", "width": 1920, "sample_rate": 48000, "pixel_ratio": {"den": 1, "num": 1}, "interlaced_frame": false, "channels": 2, "has_single_image": false, "has_video": true, "file_size": "1941438464", "type": "FFmpegReader", "height": 1080}, "crop_width": {"Points": [{"co": {"Y": -1.0, "X": 1.0}, "interpolation": 2}]}, "perspective_c3_x": {"Points": [{"co": {"Y": -1.0, "X": 1.0}, "interpolation": 2}]}, "time": {"Points": [{"co": {"Y": 1.0, "X": 1.0}, "interpolation": 2}]}, "crop_height": {"Points": [{"co": {"Y": -1.0, "X": 1.0}, "interpolation": 2}]}, "channel_mapping": {"Points": [{"co": {"Y": -1.0, "X": 1.0}, "interpolation": 2}]}, "perspective_c4_y": {"Points": [{"co": {"Y": -1.0, "X": 1.0}, "interpolation": 2}]}, "anchor": 0, "image": "/home/niels/.openshot_qt/thumbnail/9D4U86RADQ.png", "perspective_c1_y": {"Points": [{"co": {"Y": -1.0, "X": 1.0}, "interpolation": 2}]}, "scale_x": {"Points": [{"co": {"Y": 1.0, "X": 1.0}, "interpolation": 2}]}, "scale": 1, "perspective_c4_x": {"Points": [{"co": {"Y": -1.0, "X": 1.0}, "interpolation": 2}]}, "crop_y": {"Points": [{"co": {"Y": 0.0, "X": 1.0}, "interpolation": 2}]}, "file_id": "9D4U86RADQ", "perspective_c2_x": {"Points": [{"co": {"Y": -1.0, "X": 1.0}, "interpolation": 2}]}, "duration": 906.0479736328125, "id": "RJ6XKRUDAB", "perspective_c2_y": {"Points": [{"co": {"Y": -1.0, "X": 1.0}, "interpolation": 2}]}, "layer": 0, "end": 906.0479736328125, "perspective_c3_y": {"Points": [{"co": {"Y": -1.0, "X": 1.0}, "interpolation": 2}]}, "gravity": 4, "title": "HDV_0263.MP4", "channel_filter": {"Points": [{"co": {"Y": -1.0, "X": 1.0}, "interpolation": 2}]}, "location_x": {"Points": [{"co": {"Y": 0.0, "X": 1.0}, "interpolation": 2}]}, "has_video": {"Points": [{"co": {"Y": -1.0, "X": 1.0}, "interpolation": 2}]}, "scale_y": {"Points": [{"co": {"Y": 1.0, "X": 1.0}, "interpolation": 2}]}, "perspective_c1_x": {"Points": [{"co": {"Y": -1.0, "X": 1.0}, "interpolation": 2}]}}, "type": "update", "partial": false, "value": {"crop_x": {"Points": [{"co": {"Y": 0.0, "X": 1.0}, "interpolation": 2}]}, "start": 0, "alpha": {"Points": [{"interpolation": 0, "handle_left": {"Y": 1.0, "X": 0.5}, "handle_right": {"Y": 0.0, "X": 0.5}, "handle_type": 0, "co": {"Y": 1.0, "X": 1.0}}, {"interpolation": 0, "handle_left": {"X": 0.5, "Y": 1.0}, "handle_right": {"X": 0.5, "Y": 0.0}, "handle_type": 0, "co": {"X": 21674.0, "Y": 1.0}}, {"interpolation": 0, "handle_left": {"X": 0.5, "Y": 1.0}, "handle_right": {"X": 0.5, "Y": 0.0}, "handle_type": 0, "co": {"X": 21746.0, "Y": 0.0}}]}, "shear_x": {"Points": [{"co": {"Y": 0.0, "X": 1.0}, "interpolation": 2}]}, "has_audio": {"Points": [{"co": {"Y": -1.0, "X": 1.0}, "interpolation": 2}]}, "rotation": {"Points": [{"co": {"Y": 0.0, "X": 1.0}, "interpolation": 2}]}, "position": 20.209999084472656, "display": 0, "waveform": false, "shear_y": {"Points": [{"co": {"Y": 0.0, "X": 1.0}, "interpolation": 2}]}, "location_y": {"Points": [{"co": {"Y": 0.0, "X": 1.0}, "interpolation": 2}]}, "effects": [], "wave_color": {"red": {"Points": [{"co": {"Y": 0.0, "X": 1.0}, "handle_left": {"Y": 1.0, "X": 0.5}, "handle_right": {"Y": 0.0, "X": 0.5}, "handle_type": 0, "interpolation": 0}]}, "alpha": {"Points": [{"co": {"Y": 255.0, "X": 1.0}, "handle_left": {"Y": 1.0, "X": 0.5}, "handle_right": {"Y": 0.0, "X": 0.5}, "handle_type": 0, "interpolation": 0}]}, "blue": {"Points": [{"co": {"Y": 255.0, "X": 1.0}, "handle_left": {"Y": 1.0, "X": 0.5}, "handle_right": {"Y": 0.0, "X": 0.5}, "handle_type": 0, "interpolation": 0}]}, "green": {"Points": [{"co": {"Y": 123.0, "X": 1.0}, "handle_left": {"Y": 1.0, "X": 0.5}, "handle_right": {"Y": 0.0, "X": 0.5}, "handle_type": 0, "interpolation": 0}]}}, "volume": {"Points": [{"interpolation": 0, "handle_left": {"X": 0.5, "Y": 1.0}, "handle_right": {"X": 0.5, "Y": 0.0}, "handle_type": 0, "co": {"X": 1.0, "Y": 1.0}}, {"co": {"X": 1.0, "Y": 0.0}, "handle_left": {"X": 0.5, "Y": 1.0}, "handle_right": {"X": 0.5, "Y": 0.0}, "handle_type": 0, "interpolation": 0}, {"co": {"X": 1.0, "Y": 0.0}, "handle_left": {"X": 0.5, "Y": 1.0}, "handle_right": {"X": 0.5, "Y": 0.0}, "handle_type": 0, "interpolation": 0}]}, "anchor": 0, "crop_width": {"Points": [{"co": {"Y": -1.0, "X": 1.0}, "interpolation": 2}]}, "perspective_c3_x": {"Points": [{"co": {"Y": -1.0, "X": 1.0}, "interpolation": 2}]}, "time": {"Points": [{"co": {"Y": 1.0, "X": 1.0}, "interpolation": 2}]}, "crop_height": {"Points": [{"co": {"Y": -1.0, "X": 1.0}, "interpolation": 2}]}, "channel_mapping": {"Points": [{"co": {"Y": -1.0, "X": 1.0}, "interpolation": 2}]}, "perspective_c4_y": {"Points": [{"co": {"Y": -1.0, "X": 1.0}, "interpolation": 2}]}, "image": "/home/niels/.openshot_qt/thumbnail/9D4U86RADQ.png", "perspective_c1_y": {"Points": [{"co": {"Y": -1.0, "X": 1.0}, "interpolation": 2}]}, "scale_x": {"Points": [{"co": {"Y": 1.0, "X": 1.0}, "interpolation": 2}]}, "scale": 1, "perspective_c4_x": {"Points": [{"co": {"Y": -1.0, "X": 1.0}, "interpolation": 2}]}, "crop_y": {"Points": [{"co": {"Y": 0.0, "X": 1.0}, "interpolation": 2}]}, "file_id": "9D4U86RADQ", "perspective_c2_x": {"Points": [{"co": {"Y": -1.0, "X": 1.0}, "interpolation": 2}]}, "duration": 906.0479736328125, "id": "RJ6XKRUDAB", "perspective_c2_y": {"Points": [{"co": {"Y": -1.0, "X": 1.0}, "interpolation": 2}]}, "layer": 0, "end": 906.0479736328125, "perspective_c3_y": {"Points": [{"co": {"Y": -1.0, "X": 1.0}, "interpolation": 2}]}, "gravity": 4, "title": "HDV_0263.MP4", "channel_filter": {"Points": [{"co": {"Y": -1.0, "X": 1.0}, "interpolation": 2}]}, "location_x": {"Points": [{"co": {"Y": 0.0, "X": 1.0}, "interpolation": 2}]}, "has_video": {"Points": [{"co": {"Y": -1.0, "X": 1.0}, "interpolation": 2}]}, "scale_y": {"Points": [{"co": {"Y": 1.0, "X": 1.0}, "interpolation": 2}]}, "perspective_c1_x": {"Points": [{"co": {"Y": -1.0, "X": 1.0}, "interpolation": 2}]}}}, {"key": ["clips", {"id": "SV9NDKOXQX"}], "old_values": {"crop_x": {"Points": [{"interpolation": 2, "co": {"Y": 0.0, "X": 1.0}}]}, "start": 0, "alpha": {"Points": [{"interpolation": 2, "co": {"Y": 1.0, "X": 1.0}}, {"co": {"Y": 1.0, "X": 21245.0}, "handle_left": {"Y": 1.0, "X": 0.5}, "handle_right": {"Y": 0.0, "X": 0.5}, "handle_type": 0, "interpolation": 0}, {"co": {"Y": 0.0, "X": 21317.0}, "handle_left": {"Y": 1.0, "X": 0.5}, "handle_right": {"Y": 0.0, "X": 0.5}, "handle_type": 0, "interpolation": 0}]}, "shear_x": {"Points": [{"interpolation": 2, "co": {"Y": 0.0, "X": 1.0}}]}, "has_audio": {"Points": [{"interpolation": 2, "co": {"Y": -1.0, "X": 1.0}}]}, "rotation": {"Points": [{"interpolation": 2, "co": {"Y": 0.0, "X": 1.0}}]}, "position": 932.48, "display": 0, "waveform": false, "shear_y": {"Points": [{"interpolation": 2, "co": {"Y": 0.0, "X": 1.0}}]}, "location_y": {"Points": [{"interpolation": 2, "co": {"Y": 0.0, "X": 1.0}}]}, "effects": [], "wave_color": {"red": {"Points": [{"interpolation": 0, "handle_left": {"Y": 1.0, "X": 0.5}, "handle_right": {"Y": 0.0, "X": 0.5}, "handle_type": 0, "co": {"Y": 0.0, "X": 1.0}}]}, "alpha": {"Points": [{"interpolation": 0, "handle_left": {"Y": 1.0, "X": 0.5}, "handle_right": {"Y": 0.0, "X": 0.5}, "handle_type": 0, "co": {"Y": 255.0, "X": 1.0}}]}, "blue": {"Points": [{"interpolation": 0, "handle_left": {"Y": 1.0, "X": 0.5}, "handle_right": {"Y": 0.0, "X": 0.5}, "handle_type": 0, "co": {"Y": 255.0, "X": 1.0}}]}, "green": {"Points": [{"interpolation": 0, "handle_left": {"Y": 1.0, "X": 0.5}, "handle_right": {"Y": 0.0, "X": 0.5}, "handle_type": 0, "co": {"Y": 123.0, "X": 1.0}}]}}, "volume": {"Points": [{"interpolation": 2, "co": {"Y": 1.0, "X": 1.0}}, {"interpolation": 0, "handle_left": {"Y": 1.0, "X": 0.5}, "handle_right": {"Y": 0.0, "X": 0.5}, "handle_type": 0, "co": {"Y": 0.0, "X": 21317.0}}, {"interpolation": 0, "handle_left": {"Y": 1.0, "X": 0.5}, "handle_right": {"Y": 0.0, "X": 0.5}, "handle_type": 0, "co": {"Y": 1.0, "X": 1.0}}, {"co": {"Y": 0.0, "X": 1.0}, "handle_left": {"Y": 1.0, "X": 0.5}, "handle_right": {"Y": 0.0, "X": 0.5}, "handle_type": 0, "interpolation": 0}, {"interpolation": 0, "handle_left": {"Y": 1.0, "X": 0.5}, "handle_right": {"Y": 0.0, "X": 0.5}, "handle_type": 0, "co": {"Y": 0.0, "X": 1.0}}]}, "reader": {"has_audio": true, "top_field_first": true, "video_stream_index": 0, "video_bit_rate": 17140864, "audio_bit_rate": 127999, "audio_stream_index": 1, "pixel_format": 0, "fps": {"den": 1, "num": 50}, "video_timebase": {"den": 90000, "num": 1}, "video_length": "44408", "channel_layout": 3, "audio_timebase": {"den": 90000, "num": 1}, "vcodec": "h264", "path": "/home/niels/Vid\u00e9os/Violon/orchestre/Beethoven_5th_2018/concert_06_05_2018/HDV_0264.MP4", "display_ratio": {"den": 9, "num": 16}, "duration": 888.170654296875, "acodec": "aac", "width": 1920, "sample_rate": 48000, "pixel_ratio": {"den": 1, "num": 1}, "interlaced_frame": false, "channels": 2, "has_single_image": false, "has_video": true, "file_size": "1903001600", "type": "FFmpegReader", "height": 1080}, "crop_width": {"Points": [{"interpolation": 2, "co": {"Y": -1.0, "X": 1.0}}]}, "perspective_c3_x": {"Points": [{"interpolation": 2, "co": {"Y": -1.0, "X": 1.0}}]}, "time": {"Points": [{"interpolation": 2, "co": {"Y": 1.0, "X": 1.0}}]}, "crop_height": {"Points": [{"interpolation": 2, "co": {"Y": -1.0, "X": 1.0}}]}, "channel_mapping": {"Points": [{"interpolation": 2, "co": {"Y": -1.0, "X": 1.0}}]}, "perspective_c4_y": {"Points": [{"interpolation": 2, "co": {"Y": -1.0, "X": 1.0}}]}, "location_x": {"Points": [{"interpolation": 2, "co": {"Y": 0.0, "X": 1.0}}]}, "image": "/home/niels/.openshot_qt/thumbnail/NY6JDKZW6S.png", "perspective_c1_y": {"Points": [{"interpolation": 2, "co": {"Y": -1.0, "X": 1.0}}]}, "scale_x": {"Points": [{"interpolation": 2, "co": {"Y": 1.0, "X": 1.0}}]}, "scale": 1, "perspective_c4_x": {"Points": [{"interpolation": 2, "co": {"Y": -1.0, "X": 1.0}}]}, "crop_y": {"Points": [{"interpolation": 2, "co": {"Y": 0.0, "X": 1.0}}]}, "file_id": "NY6JDKZW6S", "perspective_c2_x": {"Points": [{"interpolation": 2, "co": {"Y": -1.0, "X": 1.0}}]}, "duration": 888.170654296875, "perspective_c1_x": {"Points": [{"interpolation": 2, "co": {"Y": -1.0, "X": 1.0}}]}, "layer": 0, "end": 888.170654296875, "perspective_c3_y": {"Points": [{"interpolation": 2, "co": {"Y": -1.0, "X": 1.0}}]}, "gravity": 4, "perspective_c2_y": {"Points": [{"interpolation": 2, "co": {"Y": -1.0, "X": 1.0}}]}, "channel_filter": {"Points": [{"interpolation": 2, "co": {"Y": -1.0, "X": 1.0}}]}, "anchor": 0, "title": "HDV_0264.MP4", "has_video": {"Points": [{"interpolation": 2, "co": {"Y": -1.0, "X": 1.0}}]}, "scale_y": {"Points": [{"interpolation": 2, "co": {"Y": 1.0, "X": 1.0}}]}, "id": "SV9NDKOXQX"}, "type": "update", "partial": false, "value": {"crop_x": {"Points": [{"interpolation": 2, "co": {"Y": 0.0, "X": 1.0}}]}, "start": 0, "alpha": {"Points": [{"interpolation": 2, "co": {"Y": 1.0, "X": 1.0}}, {"co": {"Y": 1.0, "X": 21245.0}, "handle_left": {"Y": 1.0, "X": 0.5}, "handle_right": {"Y": 0.0, "X": 0.5}, "handle_type": 0, "interpolation": 0}, {"co": {"Y": 0.0, "X": 21317.0}, "handle_left": {"Y": 1.0, "X": 0.5}, "handle_right": {"Y": 0.0, "X": 0.5}, "handle_type": 0, "interpolation": 0}]}, "shear_x": {"Points": [{"interpolation": 2, "co": {"Y": 0.0, "X": 1.0}}]}, "has_audio": {"Points": [{"interpolation": 2, "co": {"Y": -1.0, "X": 1.0}}]}, "rotation": {"Points": [{"interpolation": 2, "co": {"Y": 0.0, "X": 1.0}}]}, "position": 932.48, "display": 0, "waveform": false, "shear_y": {"Points": [{"interpolation": 2, "co": {"Y": 0.0, "X": 1.0}}]}, "location_y": {"Points": [{"interpolation": 2, "co": {"Y": 0.0, "X": 1.0}}]}, "effects": [], "wave_color": {"red": {"Points": [{"interpolation": 0, "handle_left": {"Y": 1.0, "X": 0.5}, "handle_right": {"Y": 0.0, "X": 0.5}, "handle_type": 0, "co": {"Y": 0.0, "X": 1.0}}]}, "alpha": {"Points": [{"interpolation": 0, "handle_left": {"Y": 1.0, "X": 0.5}, "handle_right": {"Y": 0.0, "X": 0.5}, "handle_type": 0, "co": {"Y": 255.0, "X": 1.0}}]}, "blue": {"Points": [{"interpolation": 0, "handle_left": {"Y": 1.0, "X": 0.5}, "handle_right": {"Y": 0.0, "X": 0.5}, "handle_type": 0, "co": {"Y": 255.0, "X": 1.0}}]}, "green": {"Points": [{"interpolation": 0, "handle_left": {"Y": 1.0, "X": 0.5}, "handle_right": {"Y": 0.0, "X": 0.5}, "handle_type": 0, "co": {"Y": 123.0, "X": 1.0}}]}}, "volume": {"Points": [{"interpolation": 2, "co": {"Y": 1.0, "X": 1.0}}, {"interpolation": 0, "handle_left": {"Y": 1.0, "X": 0.5}, "handle_right": {"Y": 0.0, "X": 0.5}, "handle_type": 0, "co": {"Y": 0.0, "X": 21317.0}}, {"interpolation": 0, "handle_left": {"Y": 1.0, "X": 0.5}, "handle_right": {"Y": 0.0, "X": 0.5}, "handle_type": 0, "co": {"Y": 1.0, "X": 1.0}}, {"co": {"Y": 0.0, "X": 1.0}, "handle_left": {"Y": 1.0, "X": 0.5}, "handle_right": {"Y": 0.0, "X": 0.5}, "handle_type": 0, "interpolation": 0}, {"interpolation": 0, "handle_left": {"Y": 1.0, "X": 0.5}, "handle_right": {"Y": 0.0, "X": 0.5}, "handle_type": 0, "co": {"Y": 0.0, "X": 1.0}}, {"co": {"X": 1.0, "Y": 0.0}, "handle_left": {"X": 0.5, "Y": 1.0}, "handle_right": {"X": 0.5, "Y": 0.0}, "handle_type": 0, "interpolation": 0}]}, "crop_width": {"Points": [{"interpolation": 2, "co": {"Y": -1.0, "X": 1.0}}]}, "perspective_c3_x": {"Points": [{"interpolation": 2, "co": {"Y": -1.0, "X": 1.0}}]}, "time": {"Points": [{"interpolation": 2, "co": {"Y": 1.0, "X": 1.0}}]}, "crop_height": {"Points": [{"interpolation": 2, "co": {"Y": -1.0, "X": 1.0}}]}, "channel_mapping": {"Points": [{"interpolation": 2, "co": {"Y": -1.0, "X": 1.0}}]}, "perspective_c4_y": {"Points": [{"interpolation": 2, "co": {"Y": -1.0, "X": 1.0}}]}, "location_x": {"Points": [{"interpolation": 2, "co": {"Y": 0.0, "X": 1.0}}]}, "image": "/home/niels/.openshot_qt/thumbnail/NY6JDKZW6S.png", "perspective_c1_y": {"Points": [{"interpolation": 2, "co": {"Y": -1.0, "X": 1.0}}]}, "scale_x": {"Points": [{"interpolation": 2, "co": {"Y": 1.0, "X": 1.0}}]}, "scale": 1, "perspective_c4_x": {"Points": [{"interpolation": 2, "co": {"Y": -1.0, "X": 1.0}}]}, "crop_y": {"Points": [{"interpolation": 2, "co": {"Y": 0.0, "X": 1.0}}]}, "file_id": "NY6JDKZW6S", "perspective_c2_x": {"Points": [{"interpolation": 2, "co": {"Y": -1.0, "X": 1.0}}]}, "duration": 888.170654296875, "perspective_c1_x": {"Points": [{"interpolation": 2, "co": {"Y": -1.0, "X": 1.0}}]}, "layer": 0, "end": 888.170654296875, "perspective_c3_y": {"Points": [{"interpolation": 2, "co": {"Y": -1.0, "X": 1.0}}]}, "gravity": 4, "perspective_c2_y": {"Points": [{"interpolation": 2, "co": {"Y": -1.0, "X": 1.0}}]}, "channel_filter": {"Points": [{"interpolation": 2, "co": {"Y": -1.0, "X": 1.0}}]}, "anchor": 0, "title": "HDV_0264.MP4", "has_video": {"Points": [{"interpolation": 2, "co": {"Y": -1.0, "X": 1.0}}]}, "scale_y": {"Points": [{"interpolation": 2, "co": {"Y": 1.0, "X": 1.0}}]}, "id": "SV9NDKOXQX"}}, {"key": ["clips", {"id": "RJ6XKRUDAB"}], "old_values": {"crop_x": {"Points": [{"interpolation": 2, "co": {"Y": 0.0, "X": 1.0}}]}, "start": 0, "alpha": {"Points": [{"co": {"Y": 1.0, "X": 1.0}, "handle_left": {"Y": 1.0, "X": 0.5}, "handle_right": {"Y": 0.0, "X": 0.5}, "handle_type": 0, "interpolation": 0}, {"co": {"X": 21674.0, "Y": 1.0}, "handle_left": {"X": 0.5, "Y": 1.0}, "handle_right": {"X": 0.5, "Y": 0.0}, "handle_type": 0, "interpolation": 0}, {"co": {"X": 21746.0, "Y": 0.0}, "handle_left": {"X": 0.5, "Y": 1.0}, "handle_right": {"X": 0.5, "Y": 0.0}, "handle_type": 0, "interpolation": 0}]}, "shear_x": {"Points": [{"interpolation": 2, "co": {"Y": 0.0, "X": 1.0}}]}, "has_audio": {"Points": [{"interpolation": 2, "co": {"Y": -1.0, "X": 1.0}}]}, "rotation": {"Points": [{"interpolation": 2, "co": {"Y": 0.0, "X": 1.0}}]}, "position": 20.209999084472656, "display": 0, "waveform": false, "shear_y": {"Points": [{"interpolation": 2, "co": {"Y": 0.0, "X": 1.0}}]}, "location_y": {"Points": [{"interpolation": 2, "co": {"Y": 0.0, "X": 1.0}}]}, "effects": [], "wave_color": {"red": {"Points": [{"interpolation": 0, "handle_left": {"Y": 1.0, "X": 0.5}, "handle_right": {"Y": 0.0, "X": 0.5}, "handle_type": 0, "co": {"Y": 0.0, "X": 1.0}}]}, "alpha": {"Points": [{"interpolation": 0, "handle_left": {"Y": 1.0, "X": 0.5}, "handle_right": {"Y": 0.0, "X": 0.5}, "handle_type": 0, "co": {"Y": 255.0, "X": 1.0}}]}, "blue": {"Points": [{"interpolation": 0, "handle_left": {"Y": 1.0, "X": 0.5}, "handle_right": {"Y": 0.0, "X": 0.5}, "handle_type": 0, "co": {"Y": 255.0, "X": 1.0}}]}, "green": {"Points": [{"interpolation": 0, "handle_left": {"Y": 1.0, "X": 0.5}, "handle_right": {"Y": 0.0, "X": 0.5}, "handle_type": 0, "co": {"Y": 123.0, "X": 1.0}}]}}, "volume": {"Points": [{"co": {"X": 1.0, "Y": 1.0}, "handle_left": {"X": 0.5, "Y": 1.0}, "handle_right": {"X": 0.5, "Y": 0.0}, "handle_type": 0, "interpolation": 0}, {"interpolation": 0, "handle_left": {"X": 0.5, "Y": 1.0}, "handle_right": {"X": 0.5, "Y": 0.0}, "handle_type": 0, "co": {"X": 1.0, "Y": 0.0}}, {"interpolation": 0, "handle_left": {"X": 0.5, "Y": 1.0}, "handle_right": {"X": 0.5, "Y": 0.0}, "handle_type": 0, "co": {"X": 1.0, "Y": 0.0}}]}, "reader": {"has_audio": true, "top_field_first": true, "video_stream_index": 0, "video_bit_rate": 17142036, "audio_bit_rate": 128002, "audio_stream_index": 1, "pixel_format": 0, "fps": {"den": 1, "num": 50}, "video_timebase": {"den": 90000, "num": 1}, "video_length": "45302", "channel_layout": 3, "audio_timebase": {"den": 90000, "num": 1}, "vcodec": "h264", "path": "/home/niels/Vid\u00e9os/Violon/orchestre/Beethoven_5th_2018/concert_06_05_2018/HDV_0263.MP4", "display_ratio": {"den": 9, "num": 16}, "duration": 906.0479736328125, "acodec": "aac", "width": 1920, "sample_rate": 48000, "pixel_ratio": {"den": 1, "num": 1}, "interlaced_frame": false, "channels": 2, "has_single_image": false, "has_video": true, "file_size": "1941438464", "type": "FFmpegReader", "height": 1080}, "crop_width": {"Points": [{"interpolation": 2, "co": {"Y": -1.0, "X": 1.0}}]}, "perspective_c3_x": {"Points": [{"interpolation": 2, "co": {"Y": -1.0, "X": 1.0}}]}, "time": {"Points": [{"interpolation": 2, "co": {"Y": 1.0, "X": 1.0}}]}, "crop_height": {"Points": [{"interpolation": 2, "co": {"Y": -1.0, "X": 1.0}}]}, "channel_mapping": {"Points": [{"interpolation": 2, "co": {"Y": -1.0, "X": 1.0}}]}, "perspective_c4_y": {"Points": [{"interpolation": 2, "co": {"Y": -1.0, "X": 1.0}}]}, "anchor": 0, "image": "/home/niels/.openshot_qt/thumbnail/9D4U86RADQ.png", "perspective_c1_y": {"Points": [{"interpolation": 2, "co": {"Y": -1.0, "X": 1.0}}]}, "scale_x": {"Points": [{"interpolation": 2, "co": {"Y": 1.0, "X": 1.0}}]}, "scale": 1, "perspective_c4_x": {"Points": [{"interpolation": 2, "co": {"Y": -1.0, "X": 1.0}}]}, "crop_y": {"Points": [{"interpolation": 2, "co": {"Y": 0.0, "X": 1.0}}]}, "file_id": "9D4U86RADQ", "perspective_c2_x": {"Points": [{"interpolation": 2, "co": {"Y": -1.0, "X": 1.0}}]}, "duration": 906.0479736328125, "id": "RJ6XKRUDAB", "perspective_c2_y": {"Points": [{"interpolation": 2, "co": {"Y": -1.0, "X": 1.0}}]}, "layer": 0, "end": 906.0479736328125, "perspective_c3_y": {"Points": [{"interpolation": 2, "co": {"Y": -1.0, "X": 1.0}}]}, "gravity": 4, "title": "HDV_0263.MP4", "channel_filter": {"Points": [{"interpolation": 2, "co": {"Y": -1.0, "X": 1.0}}]}, "location_x": {"Points": [{"interpolation": 2, "co": {"Y": 0.0, "X": 1.0}}]}, "has_video": {"Points": [{"interpolation": 2, "co": {"Y": -1.0, "X": 1.0}}]}, "scale_y": {"Points": [{"interpolation": 2, "co": {"Y": 1.0, "X": 1.0}}]}, "perspective_c1_x": {"Points": [{"interpolation": 2, "co": {"Y": -1.0, "X": 1.0}}]}}, "type": "update", "partial": false, "value": {"crop_x": {"Points": [{"interpolation": 2, "co": {"Y": 0.0, "X": 1.0}}]}, "start": 0, "alpha": {"Points": [{"co": {"Y": 1.0, "X": 1.0}, "handle_left": {"Y": 1.0, "X": 0.5}, "handle_right": {"Y": 0.0, "X": 0.5}, "handle_type": 0, "interpolation": 0}, {"co": {"X": 21674.0, "Y": 1.0}, "handle_left": {"X": 0.5, "Y": 1.0}, "handle_right": {"X": 0.5, "Y": 0.0}, "handle_type": 0, "interpolation": 0}, {"co": {"X": 21746.0, "Y": 0.0}, "handle_left": {"X": 0.5, "Y": 1.0}, "handle_right": {"X": 0.5, "Y": 0.0}, "handle_type": 0, "interpolation": 0}, {"co": {"X": 1.0, "Y": 0.0}, "handle_left": {"X": 0.5, "Y": 1.0}, "handle_right": {"X": 0.5, "Y": 0.0}, "handle_type": 0, "interpolation": 0}, {"co": {"X": 25.0, "Y": 1.0}, "handle_left": {"X": 0.5, "Y": 1.0}, "handle_right": {"X": 0.5, "Y": 0.0}, "handle_type": 0, "interpolation": 0}]}, "shear_x": {"Points": [{"interpolation": 2, "co": {"Y": 0.0, "X": 1.0}}]}, "has_audio": {"Points": [{"interpolation": 2, "co": {"Y": -1.0, "X": 1.0}}]}, "rotation": {"Points": [{"interpolation": 2, "co": {"Y": 0.0, "X": 1.0}}]}, "position": 20.209999084472656, "display": 0, "waveform": false, "shear_y": {"Points": [{"interpolation": 2, "co": {"Y": 0.0, "X": 1.0}}]}, "location_y": {"Points": [{"interpolation": 2, "co": {"Y": 0.0, "X": 1.0}}]}, "effects": [], "wave_color": {"red": {"Points": [{"interpolation": 0, "handle_left": {"Y": 1.0, "X": 0.5}, "handle_right": {"Y": 0.0, "X": 0.5}, "handle_type": 0, "co": {"Y": 0.0, "X": 1.0}}]}, "alpha": {"Points": [{"interpolation": 0, "handle_left": {"Y": 1.0, "X": 0.5}, "handle_right": {"Y": 0.0, "X": 0.5}, "handle_type": 0, "co": {"Y": 255.0, "X": 1.0}}]}, "blue": {"Points": [{"interpolation": 0, "handle_left": {"Y": 1.0, "X": 0.5}, "handle_right": {"Y": 0.0, "X": 0.5}, "handle_type": 0, "co": {"Y": 255.0, "X": 1.0}}]}, "green": {"Points": [{"interpolation": 0, "handle_left": {"Y": 1.0, "X": 0.5}, "handle_right": {"Y": 0.0, "X": 0.5}, "handle_type": 0, "co": {"Y": 123.0, "X": 1.0}}]}}, "volume": {"Points": [{"co": {"X": 1.0, "Y": 1.0}, "handle_left": {"X": 0.5, "Y": 1.0}, "handle_right": {"X": 0.5, "Y": 0.0}, "handle_type": 0, "interpolation": 0}, {"interpolation": 0, "handle_left": {"X": 0.5, "Y": 1.0}, "handle_right": {"X": 0.5, "Y": 0.0}, "handle_type": 0, "co": {"X": 1.0, "Y": 0.0}}, {"interpolation": 0, "handle_left": {"X": 0.5, "Y": 1.0}, "handle_right": {"X": 0.5, "Y": 0.0}, "handle_type": 0, "co": {"X": 1.0, "Y": 0.0}}]}, "anchor": 0, "crop_width": {"Points": [{"interpolation": 2, "co": {"Y": -1.0, "X": 1.0}}]}, "perspective_c3_x": {"Points": [{"interpolation": 2, "co": {"Y": -1.0, "X": 1.0}}]}, "time": {"Points": [{"interpolation": 2, "co": {"Y": 1.0, "X": 1.0}}]}, "crop_height": {"Points": [{"interpolation": 2, "co": {"Y": -1.0, "X": 1.0}}]}, "channel_mapping": {"Points": [{"interpolation": 2, "co": {"Y": -1.0, "X": 1.0}}]}, "perspective_c4_y": {"Points": [{"interpolation": 2, "co": {"Y": -1.0, "X": 1.0}}]}, "image": "/home/niels/.openshot_qt/thumbnail/9D4U86RADQ.png", "perspective_c1_y": {"Points": [{"interpolation": 2, "co": {"Y": -1.0, "X": 1.0}}]}, "scale_x": {"Points": [{"interpolation": 2, "co": {"Y": 1.0, "X": 1.0}}]}, "scale": 1, "perspective_c4_x": {"Points": [{"interpolation": 2, "co": {"Y": -1.0, "X": 1.0}}]}, "crop_y": {"Points": [{"interpolation": 2, "co": {"Y": 0.0, "X": 1.0}}]}, "file_id": "9D4U86RADQ", "perspective_c2_x": {"Points": [{"interpolation": 2, "co": {"Y": -1.0, "X": 1.0}}]}, "duration": 906.0479736328125, "id": "RJ6XKRUDAB", "perspective_c2_y": {"Points": [{"interpolation": 2, "co": {"Y": -1.0, "X": 1.0}}]}, "layer": 0, "end": 906.0479736328125, "perspective_c3_y": {"Points": [{"interpolation": 2, "co": {"Y": -1.0, "X": 1.0}}]}, "gravity": 4, "title": "HDV_0263.MP4", "channel_filter": {"Points": [{"interpolation": 2, "co": {"Y": -1.0, "X": 1.0}}]}, "location_x": {"Points": [{"interpolation": 2, "co": {"Y": 0.0, "X": 1.0}}]}, "has_video": {"Points": [{"interpolation": 2, "co": {"Y": -1.0, "X": 1.0}}]}, "scale_y": {"Points": [{"interpolation": 2, "co": {"Y": 1.0, "X": 1.0}}]}, "perspective_c1_x": {"Points": [{"interpolation": 2, "co": {"Y": -1.0, "X": 1.0}}]}}}], "redo": []}, "width": 1280}